# xmcd CD database file
#
# Track frame offsets:
#	150
#	8128
#	30065
#	55596
#	71337
#	89299
#	100257
#	113054
#	124534
#	151705
#	166471
#	210405
#	245703
#	254784
#	270857
#
# Disc length: 3722 seconds
#
# Revision: 6
# Processed by: cddbd v1.5.2PL0 Copyright (c) Steve Scherf et al.
# Submitted via: CDex 1.51
#
DISCID=b20e880f
DTITLE=Rachmaninoff - Vespers Op.37  (Y.Savchuk, National Academic Choir of Ukraine 'Dumka')
DYEAR=2008
DGENRE=Classique
TTITLE0=Vespers Op.37 - Come, let us worship
TTITLE1=Vespers Op.37 - Bless the Lord, O my soul
TTITLE2=Vespers Op.37 - Blessed be the Man
TTITLE3=Vespers Op.37 - O serene light
TTITLE4=Vespers Op.37 - Now let Thy Servant depart
TTITLE5=Vespers Op.37 - Rejoice, O Virgin
TTITLE6=Vespers Op.37 - Glory to God in the Highest
TTITLE7=Vespers Op.37 - Praise the Name of the Lord
TTITLE8=Vespers Op.37 - Blessed art Thou, O Lord
TTITLE9=Vespers Op.37 - Having seen the Resurrection of the Lord
TTITLE10=Vespers Op.37 - My soul magnifies the Lord
TTITLE11=Vespers Op.37 - Glory to God in the Higest
TTITLE12=Vespers Op.37 - Troparia of the Day of Salvation
TTITLE13=Vespers Op.37 - Christ is risen from the grave
TTITLE14=Vespers Op.37 - Thanksgiving to the Mother of God
EXTD=YEAR: 2008
EXTT0=
EXTT1=
EXTT2=
EXTT3=
EXTT4=
EXTT5=
EXTT6=
EXTT7=
EXTT8=
EXTT9=
EXTT10=
EXTT11=
EXTT12=
EXTT13=
EXTT14=
PLAYORDER=
